<?xml version="1.0" encoding="UTF-8" standalone="no"?>
<svg
   width="40"
   height="20"
   version="1.1"
   id="svg1"
   sodipodi:docname="toggle-off-dark-olive.svg"
   inkscape:version="1.3.2 (091e20ef0f, 2023-11-25, custom)"
   xmlns:inkscape="http://www.inkscape.org/namespaces/inkscape"
   xmlns:sodipodi="http://sodipodi.sourceforge.net/DTD/sodipodi-0.dtd"
   xmlns="http://www.w3.org/2000/svg"
   xmlns:svg="http://www.w3.org/2000/svg">
  <defs
     id="defs1" />
  <sodipodi:namedview
     id="namedview1"
     pagecolor="#505050"
     bordercolor="#ffffff"
     borderopacity="1"
     inkscape:showpageshadow="0"
     inkscape:pageopacity="0"
     inkscape:pagecheckerboard="1"
     inkscape:deskcolor="#505050"
     inkscape:zoom="14.225"
     inkscape:cx="20"
     inkscape:cy="10.017575"
     inkscape:window-width="1920"
     inkscape:window-height="1012"
     inkscape:window-x="0"
     inkscape:window-y="32"
     inkscape:window-maximized="1"
     inkscape:current-layer="svg1" />
  <g
     transform="translate(0,-1032.4)"
     fill="#000000"
     stroke-width="0"
     id="g1"
     style="fill:#5c7148;fill-opacity:1">
    <path
       d="m 10,1032.4 c -5.54,0 -10,4.46 -10,10 0,5.54 4.46,10 10,10 h 20 c 5.54,0 10,-4.46 10,-10 0,-5.54 -4.46,-10 -10,-10 z m 0,1 h 20 c 4.986,0 9,4.014 9,9 0,4.986 -4.014,9 -9,9 H 10 c -4.986,0 -9,-4.014 -9,-9 0,-4.986 4.014,-9 9,-9 z"
       opacity="0.5"
       style="fill:#5c7148;fill-opacity:1;paint-order:stroke fill markers;opacity:1"
       id="path1" />
    <circle
       transform="scale(-1,1)"
       cx="-10"
       cy="1042.4"
       r="5"
       opacity="0.5"
       style="fill:#5c7148;fill-opacity:1;paint-order:stroke fill markers;opacity:1"
       id="circle1" />
  </g>
</svg>
